<mxfile host="app.diagrams.net" agent="Mozilla/5.0 (Macintosh; Intel Mac OS X 10_15_7) AppleWebKit/537.36 (KHTML, like Gecko) Chrome/139.0.0.0 Safari/537.36" version="28.2.5">
  <diagram name="Page-1" id="cn1RhnkStgObjXSzwkai">
    <mxGraphModel dx="1312" dy="675" grid="1" gridSize="10" guides="1" tooltips="1" connect="1" arrows="1" fold="1" page="1" pageScale="1" pageWidth="850" pageHeight="1100" math="0" shadow="0">
      <root>
        <mxCell id="0" />
        <mxCell id="1" parent="0" />
        <mxCell id="_OVXTzpctumgvIu9ZGBO-1" value="31" style="rounded=0;whiteSpace=wrap;html=1;" vertex="1" parent="1">
          <mxGeometry x="310" y="120" width="40" height="40" as="geometry" />
        </mxCell>
        <mxCell id="_OVXTzpctumgvIu9ZGBO-3" value="0&lt;span style=&quot;white-space: pre;&quot;&gt;&#x9;&lt;/span&gt;1" style="rounded=0;whiteSpace=wrap;html=1;" vertex="1" parent="1">
          <mxGeometry x="10" y="360" width="80" height="40" as="geometry" />
        </mxCell>
        <mxCell id="_OVXTzpctumgvIu9ZGBO-4" value="4" style="rounded=0;whiteSpace=wrap;html=1;" vertex="1" parent="1">
          <mxGeometry x="100" y="360" width="40" height="40" as="geometry" />
        </mxCell>
        <mxCell id="_OVXTzpctumgvIu9ZGBO-5" value="8&lt;span style=&quot;white-space: pre;&quot;&gt;&#x9;&lt;/span&gt;9" style="rounded=0;whiteSpace=wrap;html=1;" vertex="1" parent="1">
          <mxGeometry x="150" y="360" width="80" height="40" as="geometry" />
        </mxCell>
        <mxCell id="_OVXTzpctumgvIu9ZGBO-6" value="13&lt;span style=&quot;white-space: pre;&quot;&gt;&#x9;&lt;/span&gt;14" style="rounded=0;whiteSpace=wrap;html=1;" vertex="1" parent="1">
          <mxGeometry x="240" y="360" width="80" height="40" as="geometry" />
        </mxCell>
        <mxCell id="_OVXTzpctumgvIu9ZGBO-7" value="32" style="rounded=0;whiteSpace=wrap;html=1;" vertex="1" parent="1">
          <mxGeometry x="370" y="360" width="40" height="40" as="geometry" />
        </mxCell>
        <mxCell id="_OVXTzpctumgvIu9ZGBO-8" value="36&lt;span style=&quot;white-space: pre;&quot;&gt;&#x9;&lt;/span&gt;37&lt;span style=&quot;white-space: pre;&quot;&gt;&#x9;&lt;/span&gt;&lt;b&gt;39&lt;/b&gt;" style="rounded=0;whiteSpace=wrap;html=1;" vertex="1" parent="1">
          <mxGeometry x="420" y="360" width="120" height="40" as="geometry" />
        </mxCell>
        <mxCell id="_OVXTzpctumgvIu9ZGBO-9" value="49&lt;span style=&quot;white-space: pre;&quot;&gt;&#x9;&lt;/span&gt;57" style="rounded=0;whiteSpace=wrap;html=1;" vertex="1" parent="1">
          <mxGeometry x="550" y="360" width="80" height="40" as="geometry" />
        </mxCell>
        <mxCell id="_OVXTzpctumgvIu9ZGBO-10" value="68&lt;span style=&quot;white-space: pre;&quot;&gt;&#x9;&lt;/span&gt;70" style="rounded=0;whiteSpace=wrap;html=1;" vertex="1" parent="1">
          <mxGeometry x="680" y="360" width="80" height="40" as="geometry" />
        </mxCell>
        <mxCell id="_OVXTzpctumgvIu9ZGBO-11" value="76&lt;span style=&quot;white-space: pre;&quot;&gt;&#x9;&lt;/span&gt;77" style="rounded=0;whiteSpace=wrap;html=1;" vertex="1" parent="1">
          <mxGeometry x="770" y="360" width="80" height="40" as="geometry" />
        </mxCell>
        <mxCell id="_OVXTzpctumgvIu9ZGBO-12" value="79&lt;span style=&quot;white-space: pre;&quot;&gt;&#x9;&lt;/span&gt;80" style="rounded=0;whiteSpace=wrap;html=1;" vertex="1" parent="1">
          <mxGeometry x="860" y="360" width="80" height="40" as="geometry" />
        </mxCell>
        <mxCell id="_OVXTzpctumgvIu9ZGBO-13" value="82&lt;span style=&quot;white-space: pre;&quot;&gt;&#x9;&lt;/span&gt;84" style="rounded=0;whiteSpace=wrap;html=1;" vertex="1" parent="1">
          <mxGeometry x="990" y="360" width="80" height="40" as="geometry" />
        </mxCell>
        <mxCell id="_OVXTzpctumgvIu9ZGBO-14" value="96&lt;span style=&quot;white-space: pre;&quot;&gt;&#x9;&lt;/span&gt;97" style="rounded=0;whiteSpace=wrap;html=1;" vertex="1" parent="1">
          <mxGeometry x="1080" y="360" width="80" height="40" as="geometry" />
        </mxCell>
        <mxCell id="_OVXTzpctumgvIu9ZGBO-15" value="99&lt;span style=&quot;white-space: pre;&quot;&gt;&#x9;&lt;/span&gt;111" style="rounded=0;whiteSpace=wrap;html=1;" vertex="1" parent="1">
          <mxGeometry x="1170" y="360" width="80" height="40" as="geometry" />
        </mxCell>
        <mxCell id="_OVXTzpctumgvIu9ZGBO-16" value="3&lt;span style=&quot;white-space: pre;&quot;&gt;&#x9;&lt;/span&gt;7&lt;span style=&quot;white-space: pre;&quot;&gt;&#x9;&lt;/span&gt;12" style="rounded=0;whiteSpace=wrap;html=1;" vertex="1" parent="1">
          <mxGeometry x="100" y="240" width="120" height="40" as="geometry" />
        </mxCell>
        <mxCell id="_OVXTzpctumgvIu9ZGBO-18" value="35&lt;span style=&quot;white-space: pre;&quot;&gt;&#x9;&lt;/span&gt;48" style="rounded=0;whiteSpace=wrap;html=1;" vertex="1" parent="1">
          <mxGeometry x="440" y="240" width="80" height="40" as="geometry" />
        </mxCell>
        <mxCell id="_OVXTzpctumgvIu9ZGBO-19" value="75&lt;span style=&quot;white-space: pre;&quot;&gt;&#x9;&lt;/span&gt;78" style="rounded=0;whiteSpace=wrap;html=1;" vertex="1" parent="1">
          <mxGeometry x="770" y="240" width="80" height="40" as="geometry" />
        </mxCell>
        <mxCell id="_OVXTzpctumgvIu9ZGBO-20" value="95&lt;span style=&quot;white-space: pre;&quot;&gt;&#x9;&lt;/span&gt;98" style="rounded=0;whiteSpace=wrap;html=1;" vertex="1" parent="1">
          <mxGeometry x="1060" y="240" width="80" height="40" as="geometry" />
        </mxCell>
        <mxCell id="_OVXTzpctumgvIu9ZGBO-21" value="81" style="rounded=0;whiteSpace=wrap;html=1;" vertex="1" parent="1">
          <mxGeometry x="920" y="120" width="40" height="40" as="geometry" />
        </mxCell>
        <mxCell id="_OVXTzpctumgvIu9ZGBO-22" value="67" style="rounded=0;whiteSpace=wrap;html=1;" vertex="1" parent="1">
          <mxGeometry x="620" y="40" width="40" height="40" as="geometry" />
        </mxCell>
      </root>
    </mxGraphModel>
  </diagram>
</mxfile>
